# AST/ASF file generated using VICON BodyLanguage
# -----------------------------------------------
:version 1.10
:name VICON
:units
  mass 1.0
  length 0.45
  angle deg
:documentation
   .ast/.asf automatically generated from VICON data using
   VICON BodyBuilder and BodyLanguage model FoxedUp or BRILLIANT.MOD
:root
   order TX TY TZ RX RY RZ
   axis XYZ
   position 0 0 0  
   orientation 0 0 0 
:bonedata
  begin
     id 1 
     name lhipjoint
     direction 0.702568 -0.596508 0.388042 
     length 2.56661 
     axis 0 0 0  XYZ
  end
  begin
     id 2 
     name lfemur
     direction 0.34202 -0.939693 0  
     length 6.58374  
     axis 0 0 20  XYZ
    dof rx ry rz
    limits (-160.0 20.0)
           (-70.0 70.0)
           (-60.0 70.0)
  end
  begin
     id 3 
     name ltibia
     direction 0.34202 -0.939693 0   
     length 6.62538   
     axis 0 0 20   XYZ
    dof rx
    limits (-10.0 170.0)
  end
  begin
     id 4 
     name lfoot
     direction 0.10455 -0.287249 0.952133   
     length 2.26699   
     axis -90 7.62852e-016 20   XYZ
    dof rx rz
    limits (-45.0 90.0)
           (-70.0 20.0)
  end
  begin
     id 5 
     name ltoes
     direction 1.53572e-011 -4.22322e-011 1   
     length 1.12949   
     axis -90 7.62852e-016 20   XYZ
    dof rx
    limits (-90.0 20.0)
  end
  begin
     id 6 
     name rhipjoint
     direction -0.728055 -0.574632 0.373811   
     length 2.66432  
     axis 0 0 0  XYZ 
  end
  begin
     id 7 
     name rfemur
     direction -0.34202 -0.939693 0   
     length 6.66732   
     axis 0 0 -20   XYZ
    dof rx ry rz
    limits (-160.0 20.0)
           (-70.0 70.0)
           (-70.0 60.0)
  end
  begin
     id 8 
     name rtibia
     direction -0.34202 -0.939693 0   
     length 6.59288   
     axis 0 0 -20   XYZ
    dof rx
    limits (-10.0 170.0)
 end
 begin
     id 9 
     name rfoot
     direction -0.119193 -0.327479 0.93731   
     length 2.38061  
     axis -90 -7.62852e-016 -20   XYZ
    dof rx rz
    limits (-45.0 90.0)
           (-20.0 70.0)
  end
  begin
     id 10 
     name rtoes
     direction -1.53547e-011 -4.21827e-011 1   
     length 1.17899   
     axis -90 -7.62852e-016 -20   XYZ
    dof rx
    limits (-90.0 20.0)
  end
  begin
     id 11 
     name lowerback
     direction -0.000416114 0.999912 -0.0132284   
     length 2.12109   
     axis 0 0 0   XYZ
    dof rx ry rz
    limits (-20.0 45.0)
           (-30.0 30.0)
           (-30.0 30.0)
  end
  begin
     id 12 
     name upperback
     direction -0.00136371 0.99809 0.0617608   
     length 2.10067   
     axis 0 0 0   XYZ
    dof rx ry rz
    limits (-20.0 45.0)
           (-30.0 30.0)
           (-30.0 30.0)
  end
  begin
     id 13 
     name thorax
     direction -3.43026e-005 0.997776 0.0666515   
     length 2.10618   
     axis 0 0 0   XYZ
    dof rx ry rz
    limits (-20.0 45.0)
           (-30.0 30.0)
           (-30.0 30.0)
  end
  begin
     id 14 
     name lowerneck
     direction 0.0398646 0.998418 0.0396592   
     length 1.83817   
     axis 0 0 0   XYZ
    dof rx ry rz
    limits (-20.0 45.0)
           (-30.0 30.0)
           (-30.0 30.0)
  end
  begin
     id 15 
     name upperneck
     direction -0.0367268 0.961527 -0.272244   
     length 1.81975   
     axis 0 0 0   XYZ
    dof rx ry rz
    limits (-20.0 45.0)
           (-30.0 30.0)
           (-30.0 30.0)
  end
  begin
     id 16
     name head
     direction -0.0182665 0.99536 -0.0944669  
     length 1.86026  
     axis 0 0 0   XYZ
    dof rx ry rz
    limits (-20.0 45.0)
           (-30.0 30.0)
           (-30.0 30.0)
  end
  begin
     id 17 
     name lclavicle
     direction 0.924239 0.361045 0.124212  
     length 3.26878  
     axis 0 0 0   XYZ
    dof ry rz
    limits (-20.0 10.0)
           (0.0 20.0)
  end
  begin
     id 18 
     name lhumerus
     direction 1 -4.48968e-011 -2.56583e-027   
     length 4.58538   
     axis 180 -30 -90   XYZ
    dof rx ry rz
    limits (-60.0 90.0)
           (-90.0 90.0)
           (-90.0 90.0)
  end
  begin
     id 19
     name lradius
     direction 1 -4.4898e-011 -5.50375e-027   
     length 2.68935   
     axis 180 -30 -90   XYZ
    dof rx
    limits (-10.0 170.0)
  end
  begin
     id 20
     name lwrist
     direction 1 -4.48939e-011 -1.48955e-026   
     length 1.34468   
     axis 9.0955e-015 90 90   XYZ
    dof ry
    limits (-180.0 0.0)
 end
  begin
     id 21 
     name lhand
     direction 1 -4.48936e-011 -2.97907e-026   
     length 0.585058   
     axis 1.90115e-014 90 90   XYZ
    dof rx rz
    limits (-90.0 90.0)
           (-45.0 45.0)
  end
  begin
     id 22 
     name lfingers
     direction 1 -4.49082e-011 -5.96235e-026   
     length 0.471689   
     axis 3.80223e-014 90 90   XYZ
    dof rx
    limits (0.0 90.0)
  end
  begin
     id 23
     name lthumb
     direction 0.707107 -6.3489e-011 0.707107   
     length 0.677253   
     axis -90 45 -3.84942e-014   XYZ
    dof rx rz
    limits (-45.0 45.0)
           (-45.0 45.0)
  end
  begin
     id 24 
     name rclavicle
     direction -0.923098 0.371783 0.0983239   
     length 3.19656  
     axis 0 0 0   XYZ 
    dof ry rz
    limits (-10.0 20.0)
           (-20.0 0.0)
  end
  begin
     id 25 
     name rhumerus
     direction -1 -4.48976e-011 -2.5492e-027  
     length 4.4745   
     axis 180 30 90   XYZ
    dof rx ry rz
    limits (-90.0 60.0)
           (-90.0 90.0)
           (-90.0 90.0)
  end
  begin
     id 26 
     name rradius
     direction -1 -4.48941e-011 -4.36555e-027   
     length 2.93896   
     axis 180 30 90   XYZ
    dof rx
    limits (-10.0 170.0)
  end
  begin
     id 27 
     name rwrist
     direction -1 -4.49044e-011 -1.49032e-026   
     length 1.46948   
     axis 9.0955e-015 -90 -90   XYZ
    dof ry
    limits (-180.0 0.0)
  end
  begin
     id 28
     name rhand
     direction -1 -4.48826e-011 -2.97749e-026   
     length 0.405092   
     axis 1.90115e-014 -90 -90   XYZ
    dof rx rz
    limits (-90.0 90.0)
           (-45.0 45.0)
  end
  begin
     id 29
     name rfingers
     direction -1 -4.49209e-011 -5.96602e-026   
     length 0.326596   
     axis 3.80223e-014 -90 -90   XYZ
    dof rx
    limits (0.0 90.0)
  end
  begin
     id 30
     name rthumb
     direction -0.707107 -6.34776e-011 0.707107   
     length 0.468928   
     axis -90 -45 3.84942e-014   XYZ
    dof rx rz
    limits (-45.0 45.0)
           (-45.0 45.0)
  end
:hierarchy
  begin
    root lhipjoint rhipjoint lowerback
    lhipjoint lfemur
    lfemur ltibia
    ltibia lfoot
    lfoot ltoes
    rhipjoint rfemur
    rfemur rtibia
    rtibia rfoot
    rfoot rtoes
    lowerback upperback
    upperback thorax
    thorax lowerneck lclavicle rclavicle
    lowerneck upperneck
    upperneck head
    lclavicle lhumerus
    lhumerus lradius
    lradius lwrist
    lwrist lhand lthumb
    lhand lfingers
    rclavicle rhumerus
    rhumerus rradius
    rradius rwrist
    rwrist rhand rthumb
    rhand rfingers
  end

#!OML:ASF H:\Punching\Project 1\Capture day 1\Session 1\female.ASF
:FULLY-SPECIFIED
:DEGREES
284
root 1.03916 15.1245 3.18618 13.3298 -19.2005 -2.74003
lowerback 1.59245 2.42904 -1.88839
upperback -6.255 3.00657 -2.09921
thorax -7.40553 1.5174 -1.38164
lowerneck -7.06629 4.27888 15.5745
upperneck 30.55 1.37391 5.49903
head 11.477 2.95229 -0.43343
rclavicle -2.83268e-015 1.59028e-014
rhumerus 10.8348 15.5469 -80.0627
rradius 130.009
rwrist -45.3928
rhand -9.93227 -22.3027
rfingers 7.12502
rthumb 16.0489 -51.6581
lclavicle -2.83268e-015 1.59028e-014
lhumerus 24.0556 -39.3673 74.0499
lradius 136.885
lwrist 11.9614
lhand -25.7106 7.4421
lfingers 7.12502
lthumb 0.825227 37.4203
rfemur 0.196259 6.14916 8.12019
rtibia 11.6665
rfoot -17.8002 -18.0227
rtoes -17.1124
lfemur -36.8588 7.98396 -9.82459
ltibia 43.8544
lfoot -13.9861 18.8827
ltoes -0.78509
285
root 1.06258 15.1193 3.19206 13.36 -20.5525 -3.0208
lowerback 1.80526 2.11892 -1.88396
upperback -6.25211 2.58408 -2.04386
thorax -7.53101 1.30857 -1.30155
lowerneck -6.64033 4.76952 16.3071
upperneck 30.269 2.13208 5.13995
head 11.3539 3.30083 -0.601803
rclavicle 4.69132e-014 2.78299e-014
rhumerus 9.57215 16.011 -80.7373
rradius 132.076
rwrist -46.6504
rhand -9.70859 -22.1976
rfingers 7.12502
rthumb 16.2643 -51.5355
lclavicle 4.69132e-014 2.78299e-014
lhumerus 24.322 -39.1659 73.7386
lradius 137.094
lwrist 12.146
lhand -25.7545 7.73906
lfingers 7.12502
lthumb 0.782815 37.7174
rfemur -0.118038 6.55348 7.89572
rtibia 11.3665
rfoot -17.5655 -17.0998
rtoes -17.4422
lfemur -36.5398 8.49552 -9.62268
ltibia 44.3119
lfoot -14.4923 19.6174
ltoes -0.503791
286
root 1.08615 15.1115 3.19887 13.4367 -21.622 -3.33669
lowerback 1.99701 1.77624 -1.76701
upperback -6.25658 2.12659 -1.97208
thorax -7.6476 1.0768 -1.26058
lowerneck -6.21184 5.20581 16.9801
upperneck 29.974 2.83057 4.78312
head 11.2282 3.61706 -0.76702
rclavicle -1.70831e-014 -3.02153e-014
rhumerus 8.48182 16.3081 -81.2873
rradius 133.835
rwrist -47.7306
rhand -9.51301 -22.1882
rfingers 7.12502
rthumb 16.4526 -51.5105
lclavicle -1.70831e-014 -3.02153e-014
lhumerus 24.5348 -39.1188 73.4323
lradius 137.327
lwrist 12.0103
lhand -26.1107 8.39545
lfingers 7.12502
lthumb 0.438854 38.3747
rfemur -0.271074 6.89452 7.78768
rtibia 10.8975
rfoot -17.3068 -16.3626
rtoes -17.6764
lfemur -36.3755 8.81702 -9.37696
ltibia 44.826
lfoot -14.9812 20.3062
ltoes -0.192397
287
root 1.10951 15.1013 3.20624 13.5471 -22.4101 -3.66374
lowerback 2.17204 1.41658 -1.54958
upperback -6.27894 1.65361 -1.89783
thorax -7.77157 0.831687 -1.26918
lowerneck -5.76119 5.56856 17.5825
upperneck 29.6681 3.44265 4.44681
head 11.0929 3.8898 -0.924729
rclavicle -2.3233e-014 3.49861e-014
rhumerus 7.53954 16.4562 -81.6968
rradius 135.266
rwrist -48.5252
rhand -9.43665 -22.3318
rfingers 7.12502
rthumb 16.5261 -51.6481
lclavicle -2.3233e-014 3.49861e-014
lhumerus 24.6682 -39.2186 73.1667
lradius 137.558
lwrist 11.6068
lhand -26.7334 9.26198
lfingers 7.12502
lthumb -0.162579 39.2417
rfemur -0.27648 7.17877 7.77415
rtibia 10.2988
rfoot -17.033 -15.8296
rtoes -17.817
lfemur -36.3479 8.96011 -9.11374
ltibia 45.365
lfoot -15.4401 20.9357
ltoes 0.118413
288
root 1.13229 15.0895 3.21365 13.6801 -22.9318 -3.98009
lowerback 2.32106 1.04395 -1.27732
upperback -6.30411 1.1695 -1.80948
thorax -7.8851 0.578407 -1.28962
lowerneck -5.34114 5.86453 18.0977
upperneck 29.3752 3.96834 4.12398
head 10.9643 4.11868 -1.0735
rclavicle 9.52924e-015 7.95139e-015
rhumerus 6.79275 16.5135 -81.9297
rradius 136.347
rwrist -48.985
rhand -9.51747 -22.5924
rfingers 7.12502
rthumb 16.4483 -51.9151
lclavicle 9.52924e-015 7.95139e-015
lhumerus 24.7113 -39.3662 73.0126
lradius 137.754
lwrist 11.0958
lhand -27.4242 10.0546
lfingers 7.12502
lthumb -0.829768 40.0328
rfemur -0.153987 7.76609 7.83008
rtibia 9.6041
rfoot -16.7224 -15.8459
rtoes -17.866
lfemur -36.4355 8.94394 -8.85415
ltibia 45.8946
lfoot -15.8573 21.4926
ltoes 0.409481
289
root 1.15396 15.0769 3.22056 13.8239 -23.209 -4.26527
lowerback 2.44391 0.649394 -1.02478
upperback -6.31811 0.659942 -1.67581
thorax -7.97565 0.31567 -1.24616
lowerneck -5.00854 6.11572 18.4983
upperneck 29.1292 4.42767 3.8079
head 10.8641 4.31183 -1.20713
rclavicle 1.89467e-014 -7.95139e-015
rhumerus 6.30897 16.5631 -81.9564
rradius 137.058
rwrist -49.1402
rhand -9.75607 -22.9044
rfingers 7.12502
rthumb 16.2185 -52.246
lclavicle 1.89467e-014 -7.95139e-015
lhumerus 24.6444 -39.4384 73.0295
lradius 137.892
lwrist 10.5649
lhand -28.0221 10.6125
lfingers 7.12502
lthumb -1.40723 40.5876
rfemur 0.0771328 8.11052 7.93639
rtibia 8.84257
rfoot -16.4132 -15.8564
rtoes -17.8419
lfemur -36.6162 8.80381 -8.61752
ltibia 46.3854
lfoot -16.2168 21.9546
ltoes 0.660976
290
root 1.17404 15.0645 3.22684 13.9729 -23.2597 -4.5113
lowerback 2.52719 0.255436 -0.79853
upperback -6.32704 0.1534 -1.5131
thorax -8.03981 0.057394 -1.15531
lowerneck -4.74457 6.30571 18.7928
upperneck 28.9227 4.79184 3.52622
head 10.7818 4.4591 -1.3211
rclavicle 4.40184e-014 9.54166e-015
rhumerus 6.05973 16.5859 -81.7962
rradius 137.418
rwrist -49.0212
rhand -10.1211 -23.1962
rfingers 7.12502
rthumb 15.867 -52.5661
lclavicle 4.40184e-014 9.54166e-015
lhumerus 24.4747 -39.4612 73.2272
lradius 137.97
lwrist 10.0798
lhand -28.4656 10.9312
lfingers 7.12502
lthumb -1.83557 40.9031
rfemur 0.402465 8.22799 8.08025
rtibia 8.02927
rfoot -16.1029 -15.8576
rtoes -17.763
lfemur -36.872 8.57275 -8.40973
ltibia 46.8148
lfoot -16.4955 22.2985
ltoes 0.825979
291
root 1.19216 15.0531 3.23221 14.1202 -23.1078 -4.71227
lowerback 2.57154 -0.121958 -0.621883
upperback -6.3272 -0.330469 -1.32044
thorax -8.07193 -0.185205 -1.00585
lowerneck -4.58104 6.43236 18.9708
upperneck 28.7665 5.04505 3.29883
head 10.7235 4.55491 -1.40754
rclavicle -4.30617e-014 1.27222e-014
rhumerus 6.05879 16.5662 -81.4561
rradius 137.453
rwrist -48.6963
rhand -10.5498 -23.4372
rfingers 7.12502
rthumb 15.4541 -52.8394
lclavicle -4.30617e-014 1.27222e-014
lhumerus 24.2174 -39.393 73.6359
lradius 137.992
lwrist 9.79381
lhand -28.6056 10.8999
lfingers 7.12502
lthumb -1.97078 40.8706
rfemur 0.817155 8.1406 8.24794
rtibia 7.16016
rfoot -15.7814 -15.8418
rtoes -17.6418
lfemur -37.187 8.29083 -8.23652
ltibia 47.17
lfoot -16.6802 22.5015
ltoes 0.899234
292
root 1.20809 15.0433 3.2366 14.2593 -22.7752 -4.85914
lowerback 2.57386 -0.466553 -0.503294
upperback -6.31719 -0.771781 -1.11265
thorax -8.06642 -0.402414 -0.811643
lowerneck -4.52715 6.49038 19.0383
upperneck 28.6541 5.17087 3.14741
head 10.6856 4.59393 -1.46139
rclavicle 2.57053e-014 -1.74931e-014
rhumerus 6.29231 16.4621 -80.9663
rradius 137.202
rwrist -48.2327
rhand -10.9522 -23.6144
rfingers 7.12502
rthumb 15.0666 -53.0462
lclavicle 2.57053e-014 -1.74931e-014
lhumerus 23.9301 -39.3983 74.1399
lradius 137.949
lwrist 9.35847
lhand -28.7373 10.9013
lfingers 7.12502
lthumb -2.09796 40.8707
rfemur 1.32554 7.87286 8.42131
rtibia 6.21313
rfoot -15.4306 -15.8102
rtoes -17.4856
lfemur -37.5495 7.99284 -8.11065
ltibia 47.4452
lfoot -16.76 22.5476
ltoes 0.868905
293
root 1.22192 15.0353 3.24038 14.3789 -22.2847 -4.95277
lowerback 2.55587 -0.747188 -0.42202
upperback -6.30919 -1.12957 -0.912222
thorax -8.0483 -0.57633 -0.612631
lowerneck -4.59487 6.45796 19.0049
upperneck 28.5889 5.12871 3.09324
head 10.6678 4.56091 -1.48094
rclavicle -1.922e-014 2.78299e-014
rhumerus 6.7007 16.2007 -80.3583
rradius 136.714
rwrist -47.6541
rhand -11.1918 -23.9231
rfingers 7.12502
rthumb 14.8358 -53.372
lclavicle -1.922e-014 2.78299e-014
lhumerus 23.6386 -39.5438 74.7156
lradius 137.851
lwrist 8.86177
lhand -28.8929 10.9903
lfingers 7.12502
lthumb -2.24828 40.9582
rfemur 1.96688 7.44083 8.5896
rtibia 5.11624
rfoot -15.0137 -15.7509
rtoes -17.3022
lfemur -37.941 7.70643 -8.0369
ltibia 47.6435
lfoot -16.7374 22.4319
ltoes 0.733215
